<svg id="my-svg" width="100%" xmlns="http://www.w3.org/2000/svg" xmlns:xlink="http://www.w3.org/1999/xlink" class="flowchart" style="max-width: 3383.97px; background-color: white;" viewBox="0 0 3383.96875 1224.75" role="graphics-document document" aria-roledescription="flowchart-v2"><style>#my-svg{font-size:15px;fill:#333;}@keyframes edge-animation-frame{from{stroke-dashoffset:0;}}@keyframes dash{to{stroke-dashoffset:0;}}#my-svg .edge-animation-slow{stroke-dasharray:9,5!important;stroke-dashoffset:900;animation:dash 50s linear infinite;stroke-linecap:round;}#my-svg .edge-animation-fast{stroke-dasharray:9,5!important;stroke-dashoffset:900;animation:dash 20s linear infinite;stroke-linecap:round;}#my-svg .error-icon{fill:hsl(220.5882352941, 100%, 98.3333333333%);}#my-svg .error-text{fill:rgb(8.5000000002, 5.7500000001, 0);stroke:rgb(8.5000000002, 5.7500000001, 0);}#my-svg .edge-thickness-normal{stroke-width:1px;}#my-svg .edge-thickness-thick{stroke-width:3.5px;}#my-svg .edge-pattern-solid{stroke-dasharray:0;}#my-svg .edge-thickness-invisible{stroke-width:0;fill:none;}#my-svg .edge-pattern-dashed{stroke-dasharray:3;}#my-svg .edge-pattern-dotted{stroke-dasharray:2;}#my-svg .marker{fill:#0b0b0b;stroke:#0b0b0b;}#my-svg .marker.cross{stroke:#0b0b0b;}#my-svg svg{font-size:15px;}#my-svg p{margin:0;}#my-svg .label{color:#333;}#my-svg .cluster-label text{fill:rgb(8.5000000002, 5.7500000001, 0);}#my-svg .cluster-label span{color:rgb(8.5000000002, 5.7500000001, 0);}#my-svg .cluster-label span p{background-color:transparent;}#my-svg .label text,#my-svg span{fill:#333;color:#333;}#my-svg .node rect,#my-svg .node circle,#my-svg .node ellipse,#my-svg .node polygon,#my-svg .node path{fill:#fff4dd;stroke:hsl(40.5882352941, 60%, 83.3333333333%);stroke-width:1px;}#my-svg .rough-node .label text,#my-svg .node .label text,#my-svg .image-shape .label,#my-svg .icon-shape .label{text-anchor:middle;}#my-svg .node .katex path{fill:#000;stroke:#000;stroke-width:1px;}#my-svg .rough-node .label,#my-svg .node .label,#my-svg .image-shape .label,#my-svg .icon-shape .label{text-align:center;}#my-svg .node.clickable{cursor:pointer;}#my-svg .root .anchor path{fill:#0b0b0b!important;stroke-width:0;stroke:#0b0b0b;}#my-svg .arrowheadPath{fill:#0b0b0b;}#my-svg .edgePath .path{stroke:#0b0b0b;stroke-width:2.0px;}#my-svg .flowchart-link{stroke:#0b0b0b;fill:none;}#my-svg .edgeLabel{background-color:hsl(-79.4117647059, 100%, 93.3333333333%);text-align:center;}#my-svg .edgeLabel p{background-color:hsl(-79.4117647059, 100%, 93.3333333333%);}#my-svg .edgeLabel rect{opacity:0.5;background-color:hsl(-79.4117647059, 100%, 93.3333333333%);fill:hsl(-79.4117647059, 100%, 93.3333333333%);}#my-svg .labelBkg{background-color:rgba(243.9999999999, 220.9999999998, 255, 0.5);}#my-svg .cluster rect{fill:hsl(220.5882352941, 100%, 98.3333333333%);stroke:hsl(220.5882352941, 60%, 88.3333333333%);stroke-width:1px;}#my-svg .cluster text{fill:rgb(8.5000000002, 5.7500000001, 0);}#my-svg .cluster span{color:rgb(8.5000000002, 5.7500000001, 0);}#my-svg div.mermaidTooltip{position:absolute;text-align:center;max-width:200px;padding:2px;font-size:12px;background:hsl(220.5882352941, 100%, 98.3333333333%);border:1px solid hsl(220.5882352941, 60%, 88.3333333333%);border-radius:2px;pointer-events:none;z-index:100;}#my-svg .flowchartTitleText{text-anchor:middle;font-size:18px;fill:#333;}#my-svg rect.text{fill:none;stroke-width:0;}#my-svg .icon-shape,#my-svg .image-shape{background-color:hsl(-79.4117647059, 100%, 93.3333333333%);text-align:center;}#my-svg .icon-shape p,#my-svg .image-shape p{background-color:hsl(-79.4117647059, 100%, 93.3333333333%);padding:2px;}#my-svg .icon-shape rect,#my-svg .image-shape rect{opacity:0.5;background-color:hsl(-79.4117647059, 100%, 93.3333333333%);fill:hsl(-79.4117647059, 100%, 93.3333333333%);}#my-svg .label-icon{display:inline-block;height:1em;overflow:visible;vertical-align:-0.125em;}#my-svg .node .label-icon path{fill:currentColor;stroke:revert;stroke-width:revert;}#my-svg :root{--mermaid-font-family:"trebuchet ms",verdana,arial,sans-serif;}</style><g><marker id="my-svg_flowchart-v2-pointEnd" class="marker flowchart-v2" viewBox="0 0 10 10" refX="5" refY="5" markerUnits="userSpaceOnUse" markerWidth="8" markerHeight="8" orient="auto"><path d="M 0 0 L 10 5 L 0 10 z" class="arrowMarkerPath" style="stroke-width: 1; stroke-dasharray: 1, 0;"/></marker><marker id="my-svg_flowchart-v2-pointStart" class="marker flowchart-v2" viewBox="0 0 10 10" refX="4.5" refY="5" markerUnits="userSpaceOnUse" markerWidth="8" markerHeight="8" orient="auto"><path d="M 0 5 L 10 10 L 10 0 z" class="arrowMarkerPath" style="stroke-width: 1; stroke-dasharray: 1, 0;"/></marker><marker id="my-svg_flowchart-v2-circleEnd" class="marker flowchart-v2" viewBox="0 0 10 10" refX="11" refY="5" markerUnits="userSpaceOnUse" markerWidth="11" markerHeight="11" orient="auto"><circle cx="5" cy="5" r="5" class="arrowMarkerPath" style="stroke-width: 1; stroke-dasharray: 1, 0;"/></marker><marker id="my-svg_flowchart-v2-circleStart" class="marker flowchart-v2" viewBox="0 0 10 10" refX="-1" refY="5" markerUnits="userSpaceOnUse" markerWidth="11" markerHeight="11" orient="auto"><circle cx="5" cy="5" r="5" class="arrowMarkerPath" style="stroke-width: 1; stroke-dasharray: 1, 0;"/></marker><marker id="my-svg_flowchart-v2-crossEnd" class="marker cross flowchart-v2" viewBox="0 0 11 11" refX="12" refY="5.2" markerUnits="userSpaceOnUse" markerWidth="11" markerHeight="11" orient="auto"><path d="M 1,1 l 9,9 M 10,1 l -9,9" class="arrowMarkerPath" style="stroke-width: 2; stroke-dasharray: 1, 0;"/></marker><marker id="my-svg_flowchart-v2-crossStart" class="marker cross flowchart-v2" viewBox="0 0 11 11" refX="-1" refY="5.2" markerUnits="userSpaceOnUse" markerWidth="11" markerHeight="11" orient="auto"><path d="M 1,1 l 9,9 M 10,1 l -9,9" class="arrowMarkerPath" style="stroke-width: 2; stroke-dasharray: 1, 0;"/></marker><g class="root"><g class="clusters"><g class="cluster" id="D4" data-look="classic"><rect style="fill:#eff6ff !important;stroke:#2563eb !important" x="3015.796875" y="733.625" width="360.171875" height="247.5"/><g class="cluster-label" transform="translate(3119.7421875, 733.625)"><foreignObject width="152.28125" height="22.5"><div xmlns="http://www.w3.org/1999/xhtml" style="display: table-cell; white-space: nowrap; line-height: 1.5; max-width: 200px; text-align: center;"><span class="nodeLabel"><p>Domain 4 — Telemetry</p></span></div></foreignObject></g></g><g class="cluster" id="D5" data-look="classic"><rect style="fill:#ecfdf5 !important;stroke:#059669 !important" x="479.890625" y="173" width="2355" height="1043.75"/><g class="cluster-label" transform="translate(1559.8515625, 173)"><foreignObject width="195.078125" height="22.5"><div xmlns="http://www.w3.org/1999/xhtml" style="display: table-cell; white-space: nowrap; line-height: 1.5; max-width: 200px; text-align: center;"><span class="nodeLabel"><p>Domain 5 — Control Network</p></span></div></foreignObject></g></g><g class="cluster" id="D6" data-look="classic"><rect style="fill:#fffbeb !important;stroke:#d97706 !important" x="8" y="8" width="1292.21875" height="145"/><g class="cluster-label" transform="translate(560.875, 8)"><foreignObject width="186.46875" height="22.5"><div xmlns="http://www.w3.org/1999/xhtml" style="display: table-cell; white-space: nowrap; line-height: 1.5; max-width: 200px; text-align: center;"><span class="nodeLabel"><p>Domain 6 — Vision (Jetson)</p></span></div></foreignObject></g></g><g class="cluster" id="STM32" data-look="classic"><rect style="fill:#e0f2fe !important;stroke:#0284c7 !important;stroke-width:1.5px !important" x="1993.859375" y="193" width="310" height="273.75"/><g class="cluster-label" transform="translate(2124.6796875, 193)"><foreignObject width="48.359375" height="22.5"><div xmlns="http://www.w3.org/1999/xhtml" style="display: table-cell; white-space: nowrap; line-height: 1.5; max-width: 200px; text-align: center;"><span class="nodeLabel"><p>STM32</p></span></div></foreignObject></g></g><g class="cluster" id="RPI" data-look="classic"><rect style="fill:#d1fae5 !important;stroke:#059669 !important;stroke-width:1.5px !important" x="504.890625" y="486.75" width="2305" height="585"/><g class="cluster-label" transform="translate(1645.3046875, 486.75)"><foreignObject width="24.171875" height="22.5"><div xmlns="http://www.w3.org/1999/xhtml" style="display: table-cell; white-space: nowrap; line-height: 1.5; max-width: 200px; text-align: center;"><span class="nodeLabel"><p>RPi</p></span></div></foreignObject></g></g></g><g class="edgePaths"><path d="M295.625,80.5L310.98,80.5C326.336,80.5,357.047,80.5,387.758,80.5C418.469,80.5,449.18,80.5,468.702,80.5C488.224,80.5,496.557,80.5,506.026,80.5C515.495,80.5,526.099,80.5,531.401,80.5L536.703,80.5" id="L_CAM_LANE_0" class="edge-thickness-normal edge-pattern-solid edge-thickness-normal edge-pattern-solid flowchart-link" style=";" data-edge="true" data-et="edge" data-id="L_CAM_LANE_0" data-points="W3sieCI6Mjk1LjYyNSwieSI6ODAuNX0seyJ4IjozODcuNzU3ODEyNSwieSI6ODAuNX0seyJ4Ijo0NzkuODkwNjI1LCJ5Ijo4MC41fSx7IngiOjUwNC44OTA2MjUsInkiOjgwLjV9LHsieCI6NTQwLjcwMzEyNSwieSI6ODAuNX1d" marker-end="url(#my-svg_flowchart-v2-pointEnd)"/><path d="M796.703,80.5L814.138,80.5C831.573,80.5,866.443,80.5,898.844,80.5C931.245,80.5,961.177,80.5,976.143,80.5L991.109,80.5" id="L_LANE_STR_0" class="edge-thickness-normal edge-pattern-solid edge-thickness-normal edge-pattern-solid flowchart-link" style=";" data-edge="true" data-et="edge" data-id="L_LANE_STR_0" data-points="W3sieCI6Nzk2LjcwMzEyNSwieSI6ODAuNX0seyJ4Ijo5MDEuMzEyNSwieSI6ODAuNX0seyJ4Ijo5OTUuMTA5Mzc1LCJ5Ijo4MC41fV0=" marker-end="url(#my-svg_flowchart-v2-pointEnd)"/><path d="M1275.219,66.711L1279.385,66.301C1283.552,65.891,1291.885,65.07,1314.116,145.285C1336.346,225.5,1372.474,386.75,1408.162,471.595C1443.849,556.44,1479.097,564.879,1496.721,569.099L1514.344,573.319" id="L_STR_CC_0" class="edge-thickness-normal edge-pattern-solid edge-thickness-normal edge-pattern-solid flowchart-link" style=";" data-edge="true" data-et="edge" data-id="L_STR_CC_0" data-points="W3sieCI6MTI3NS4yMTg3NSwieSI6NjYuNzExMzA1NDM4NTM4MzZ9LHsieCI6MTMwMC4yMTg3NSwieSI6NjQuMjV9LHsieCI6MTQwOC42MDE1NjI1LCJ5Ijo1NDh9LHsieCI6MTUxOC4yMzQzNzUsInkiOjU3NC4yNX1d" marker-end="url(#my-svg_flowchart-v2-pointEnd)"/><path d="M1275.219,102.774L1279.385,103.437C1283.552,104.099,1291.885,105.425,1314.116,201.921C1336.346,298.417,1372.474,490.083,1427.082,585.917C1481.69,681.75,1554.779,681.75,1631.063,681.75C1707.346,681.75,1786.826,681.75,1847.824,681.75C1908.823,681.75,1951.341,681.75,1998.434,681.75C2045.526,681.75,2097.193,681.75,2148.859,681.75C2200.526,681.75,2252.193,681.75,2293.796,681.75C2335.398,681.75,2366.938,681.75,2411.18,697.88C2455.423,714.009,2512.369,746.269,2540.842,762.399L2569.315,778.528" id="L_STR_MON_0" class="edge-thickness-normal edge-pattern-solid edge-thickness-normal edge-pattern-solid flowchart-link" style=";" data-edge="true" data-et="edge" data-id="L_STR_MON_0" data-points="W3sieCI6MTI3NS4yMTg3NSwieSI6MTAyLjc3NDA0NTA2MDgyMjY0fSx7IngiOjEzMDAuMjE4NzUsInkiOjEwNi43NX0seyJ4IjoxNDA4LjYwMTU2MjUsInkiOjY4MS43NX0seyJ4IjoxNjI3Ljg2NzE4NzUsInkiOjY4MS43NX0seyJ4IjoxODY2LjMwNDY4NzUsInkiOjY4MS43NX0seyJ4IjoxOTkzLjg1OTM3NSwieSI6NjgxLjc1fSx7IngiOjIxNDguODU5Mzc1LCJ5Ijo2ODEuNzV9LHsieCI6MjMwMy44NTkzNzUsInkiOjY4MS43NX0seyJ4IjoyMzk4LjQ3NjU2MjUsInkiOjY4MS43NX0seyJ4IjoyNTcyLjc5NTIyNjQ5MDgyNiwieSI6NzgwLjV9XQ==" marker-end="url(#my-svg_flowchart-v2-pointEnd)"/><path d="M2278.859,252.476L2283.026,251.938C2287.193,251.401,2295.526,250.325,2315.462,299.579C2335.398,348.833,2366.938,448.417,2406.772,498.208C2446.607,548,2494.737,548,2518.802,548L2542.867,548" id="L_CHD_IMU_N_0" class="edge-thickness-normal edge-pattern-solid edge-thickness-normal edge-pattern-solid flowchart-link" style=";" data-edge="true" data-et="edge" data-id="L_CHD_IMU_N_0" data-points="W3sieCI6MjI3OC44NTkzNzUsInkiOjI1Mi40NzU4MDY0NTE2MTI5fSx7IngiOjIzMDMuODU5Mzc1LCJ5IjoyNDkuMjV9LHsieCI6MjM5OC40NzY1NjI1LCJ5Ijo1NDh9LHsieCI6MjU0Ni44NjcxODc1LCJ5Ijo1NDh9XQ==" marker-end="url(#my-svg_flowchart-v2-pointEnd)"/><path d="M2222.669,306.75L2236.201,313.625C2249.732,320.5,2276.796,334.25,2306.097,401.958C2335.398,469.667,2366.938,591.333,2407.866,663.15C2448.794,734.967,2499.111,756.933,2524.269,767.916L2549.428,778.9" id="L_CHD_MON_0" class="edge-thickness-normal edge-pattern-solid edge-thickness-normal edge-pattern-solid flowchart-link" style=";" data-edge="true" data-et="edge" data-id="L_CHD_MON_0" data-points="W3sieCI6MjIyMi42Njg4OTg4MDk1MjQsInkiOjMwNi43NX0seyJ4IjoyMzAzLjg1OTM3NSwieSI6MzQ4fSx7IngiOjIzOTguNDc2NTYyNSwieSI6NzEzfSx7IngiOjI1NTMuMDkzNzUsInkiOjc4MC41fV0=" marker-end="url(#my-svg_flowchart-v2-pointEnd)"/><path d="M2229.032,356.75L2241.503,350.917C2253.974,345.083,2278.917,333.417,2307.158,382.375C2335.398,431.333,2366.938,540.917,2404.41,595.708C2441.883,650.5,2485.289,650.5,2506.992,650.5L2528.695,650.5" id="L_SND_SENS_N_0" class="edge-thickness-normal edge-pattern-solid edge-thickness-normal edge-pattern-solid flowchart-link" style=";" data-edge="true" data-et="edge" data-id="L_SND_SENS_N_0" data-points="W3sieCI6MjIyOS4wMzE3ODg3OTMxMDMzLCJ5IjozNTYuNzV9LHsieCI6MjMwMy44NTkzNzUsInkiOjMyMS43NX0seyJ4IjoyMzk4LjQ3NjU2MjUsInkiOjY1MC41fSx7IngiOjI1MzIuNjk1MzEyNSwieSI6NjUwLjV9XQ==" marker-end="url(#my-svg_flowchart-v2-pointEnd)"/><path d="M2278.859,416.266L2283.026,416.972C2287.193,417.677,2295.526,419.089,2315.462,475.628C2335.398,532.167,2366.938,643.833,2398.096,703.666C2429.255,763.498,2460.033,771.496,2475.422,775.495L2490.811,779.494" id="L_SND_MON_0" class="edge-thickness-normal edge-pattern-solid edge-thickness-normal edge-pattern-solid flowchart-link" style=";" data-edge="true" data-et="edge" data-id="L_SND_MON_0" data-points="W3sieCI6MjI3OC44NTkzNzUsInkiOjQxNi4yNjYxMjkwMzIyNTgwNX0seyJ4IjoyMzAzLjg1OTM3NSwieSI6NDIwLjV9LHsieCI6MjM5OC40NzY1NjI1LCJ5Ijo3NTUuNX0seyJ4IjoyNDk0LjY4MjgxMjUsInkiOjc4MC41fV0=" marker-end="url(#my-svg_flowchart-v2-pointEnd)"/><path d="M1738.75,600.5L1760.009,600.5C1781.268,600.5,1823.786,600.5,1866.305,600.5C1908.823,600.5,1951.341,600.5,1995.227,552.145C2039.112,503.791,2084.364,407.082,2106.991,358.727L2129.617,310.373" id="L_CC_CHD_0" class="edge-thickness-normal edge-pattern-solid edge-thickness-normal edge-pattern-solid flowchart-link" style=";" data-edge="true" data-et="edge" data-id="L_CC_CHD_0" data-points="W3sieCI6MTczOC43NSwieSI6NjAwLjV9LHsieCI6MTg2Ni4zMDQ2ODc1LCJ5Ijo2MDAuNX0seyJ4IjoxOTkzLjg1OTM3NSwieSI6NjAwLjV9LHsieCI6MjEzMS4zMTIyMDUxODg2Nzk0LCJ5IjozMDYuNzV9XQ==" marker-end="url(#my-svg_flowchart-v2-pointEnd)"/><path d="M1661.472,626.75L1695.611,653.417C1729.75,680.083,1798.027,733.417,1853.425,760.083C1908.823,786.75,1951.341,786.75,1998.434,786.75C2045.526,786.75,2097.193,786.75,2148.859,786.75C2200.526,786.75,2252.193,786.75,2293.796,786.75C2335.398,786.75,2366.938,786.75,2397.815,788.713C2428.693,790.676,2458.91,794.602,2474.019,796.565L2489.127,798.528" id="L_CC_MON_0" class="edge-thickness-normal edge-pattern-solid edge-thickness-normal edge-pattern-solid flowchart-link" style=";" data-edge="true" data-et="edge" data-id="L_CC_MON_0" data-points="W3sieCI6MTY2MS40NzI0NzI3MzQ4OTk0LCJ5Ijo2MjYuNzV9LHsieCI6MTg2Ni4zMDQ2ODc1LCJ5Ijo3ODYuNzV9LHsieCI6MTk5My44NTkzNzUsInkiOjc4Ni43NX0seyJ4IjoyMTQ4Ljg1OTM3NSwieSI6Nzg2Ljc1fSx7IngiOjIzMDMuODU5Mzc1LCJ5Ijo3ODYuNzV9LHsieCI6MjM5OC40NzY1NjI1LCJ5Ijo3ODYuNzV9LHsieCI6MjQ5My4wOTM3NSwieSI6Nzk5LjA0MzUzNDM5ODc1MjZ9XQ==" marker-end="url(#my-svg_flowchart-v2-pointEnd)"/><path d="M768.393,859.875L790.546,865.708C812.699,871.542,857.006,883.208,905.983,899.222C954.961,915.235,1008.609,935.595,1035.433,945.776L1062.257,955.956" id="L_SPRES_NAV_0" class="edge-thickness-normal edge-pattern-solid edge-thickness-normal edge-pattern-solid flowchart-link" style=";" data-edge="true" data-et="edge" data-id="L_SPRES_NAV_0" data-points="W3sieCI6NzY4LjM5Mjg1NzE0Mjg1NzEsInkiOjg1OS44NzV9LHsieCI6OTAxLjMxMjUsInkiOjg5NC44NzV9LHsieCI6MTA2NS45OTY2OTg5NDM2NjIsInkiOjk1Ny4zNzV9XQ==" marker-end="url(#my-svg_flowchart-v2-pointEnd)"/><path d="M774.18,826.54L795.368,825.117C816.557,823.693,858.935,820.847,919.099,819.423C979.263,818,1057.214,818,1123.698,818C1190.182,818,1245.201,818,1290.773,818C1336.346,818,1372.474,818,1427.082,818C1481.69,818,1554.779,818,1631.063,818C1707.346,818,1786.826,818,1847.824,818C1908.823,818,1951.341,818,1998.434,818C2045.526,818,2097.193,818,2148.859,818C2200.526,818,2252.193,818,2293.796,818C2335.398,818,2366.938,818,2397.81,818C2428.682,818,2458.888,818,2473.991,818L2489.094,818" id="L_SPRES_MON_0" class="edge-thickness-normal edge-pattern-solid edge-thickness-normal edge-pattern-solid flowchart-link" style=";" data-edge="true" data-et="edge" data-id="L_SPRES_MON_0" data-points="W3sieCI6Nzc0LjE3OTY4NzUsInkiOjgyNi41Mzk4NTQ0MDMxNzA2fSx7IngiOjkwMS4zMTI1LCJ5Ijo4MTh9LHsieCI6MTEzNS4xNjQwNjI1LCJ5Ijo4MTh9LHsieCI6MTMwMC4yMTg3NSwieSI6ODE4fSx7IngiOjE0MDguNjAxNTYyNSwieSI6ODE4fSx7IngiOjE2MjcuODY3MTg3NSwieSI6ODE4fSx7IngiOjE4NjYuMzA0Njg3NSwieSI6ODE4fSx7IngiOjE5OTMuODU5Mzc1LCJ5Ijo4MTh9LHsieCI6MjE0OC44NTkzNzUsInkiOjgxOH0seyJ4IjoyMzAzLjg1OTM3NSwieSI6ODE4fSx7IngiOjIzOTguNDc2NTYyNSwieSI6ODE4fSx7IngiOjI0OTMuMDkzNzUsInkiOjgxOH1d" marker-end="url(#my-svg_flowchart-v2-pointEnd)"/><path d="M2237.664,879.25L2248.697,879.25C2259.729,879.25,2281.794,879.25,2308.596,879.25C2335.398,879.25,2366.938,879.25,2397.831,875.399C2428.724,871.547,2458.97,863.845,2474.094,859.993L2489.217,856.142" id="L_RTK_MON_0" class="edge-thickness-normal edge-pattern-solid edge-thickness-normal edge-pattern-solid flowchart-link" style=";" data-edge="true" data-et="edge" data-id="L_RTK_MON_0" data-points="W3sieCI6MjIzNy42NjQwNjI1LCJ5Ijo4NzkuMjV9LHsieCI6MjMwMy44NTkzNzUsInkiOjg3OS4yNX0seyJ4IjoyMzk4LjQ3NjU2MjUsInkiOjg3OS4yNX0seyJ4IjoyNDkzLjA5Mzc1LCJ5Ijo4NTUuMTU0NjcyNTc4NDQ0OH1d" marker-end="url(#my-svg_flowchart-v2-pointEnd)"/><path d="M1146.185,957.375L1171.857,896.229C1197.53,835.083,1248.874,712.792,1292.61,651.646C1336.346,590.5,1372.474,590.5,1407.936,591.293C1443.397,592.087,1478.193,593.674,1495.591,594.467L1512.989,595.261" id="L_NAV_CC_0" class="edge-thickness-normal edge-pattern-solid edge-thickness-normal edge-pattern-solid flowchart-link" style=";" data-edge="true" data-et="edge" data-id="L_NAV_CC_0" data-points="W3sieCI6MTE0Ni4xODUyMDIyMDU4ODI0LCJ5Ijo5NTcuMzc1fSx7IngiOjEzMDAuMjE4NzUsInkiOjU5MC41fSx7IngiOjE0MDguNjAxNTYyNSwieSI6NTkwLjV9LHsieCI6MTUxNi45ODQzNzUsInkiOjU5NS40NDI5OTE1MTk5ODg2fV0=" marker-end="url(#my-svg_flowchart-v2-pointEnd)"/><path d="M1235.632,957.375L1246.397,954.563C1257.161,951.75,1278.69,946.125,1307.518,943.313C1336.346,940.5,1372.474,940.5,1427.082,940.5C1481.69,940.5,1554.779,940.5,1631.063,940.5C1707.346,940.5,1786.826,940.5,1847.824,940.5C1908.823,940.5,1951.341,940.5,1998.434,940.5C2045.526,940.5,2097.193,940.5,2148.859,940.5C2200.526,940.5,2252.193,940.5,2293.796,940.5C2335.398,940.5,2366.938,940.5,2409.928,926.636C2452.918,912.772,2507.359,885.044,2534.58,871.179L2561.801,857.315" id="L_NAV_MON_0" class="edge-thickness-normal edge-pattern-solid edge-thickness-normal edge-pattern-solid flowchart-link" style=";" data-edge="true" data-et="edge" data-id="L_NAV_MON_0" data-points="W3sieCI6MTIzNS42MzIxMzMxNTIxNzQsInkiOjk1Ny4zNzV9LHsieCI6MTMwMC4yMTg3NSwieSI6OTQwLjV9LHsieCI6MTQwOC42MDE1NjI1LCJ5Ijo5NDAuNX0seyJ4IjoxNjI3Ljg2NzE4NzUsInkiOjk0MC41fSx7IngiOjE4NjYuMzA0Njg3NSwieSI6OTQwLjV9LHsieCI6MTk5My44NTkzNzUsInkiOjk0MC41fSx7IngiOjIxNDguODU5Mzc1LCJ5Ijo5NDAuNX0seyJ4IjoyMzAzLjg1OTM3NSwieSI6OTQwLjV9LHsieCI6MjM5OC40NzY1NjI1LCJ5Ijo5NDAuNX0seyJ4IjoyNTY1LjM2NDk1NTM1NzE0MjcsInkiOjg1NS41fV0=" marker-end="url(#my-svg_flowchart-v2-pointEnd)"/><path d="M1260.641,983.15L1267.237,983.125C1273.833,983.1,1287.026,983.05,1311.686,983.025C1336.346,983,1372.474,983,1427.082,983C1481.69,983,1554.779,983,1631.063,983C1707.346,983,1786.826,983,1847.824,983C1908.823,983,1951.341,983,1998.434,983C2045.526,983,2097.193,983,2148.859,983C2200.526,983,2252.193,983,2293.796,983C2335.398,983,2366.938,983,2413.133,962.127C2459.328,941.254,2520.18,899.509,2550.605,878.636L2581.031,857.763" id="L_NAV_MON_2" class="edge-thickness-normal edge-pattern-solid edge-thickness-normal edge-pattern-solid flowchart-link" style=";" data-edge="true" data-et="edge" data-id="L_NAV_MON_2" data-points="W3sieCI6MTI2MC42NDA2MjUsInkiOjk4My4xNDk4Njc0NjgxNjg3fSx7IngiOjEzMDAuMjE4NzUsInkiOjk4M30seyJ4IjoxNDA4LjYwMTU2MjUsInkiOjk4M30seyJ4IjoxNjI3Ljg2NzE4NzUsInkiOjk4M30seyJ4IjoxODY2LjMwNDY4NzUsInkiOjk4M30seyJ4IjoxOTkzLjg1OTM3NSwieSI6OTgzfSx7IngiOjIxNDguODU5Mzc1LCJ5Ijo5ODN9LHsieCI6MjMwMy44NTkzNzUsInkiOjk4M30seyJ4IjoyMzk4LjQ3NjU2MjUsInkiOjk4M30seyJ4IjoyNTg0LjMyOTU0NTQ1NDU0NTUsInkiOjg1NS41fV0=" marker-end="url(#my-svg_flowchart-v2-pointEnd)"/><path d="M1238.631,1009.875L1248.896,1012.479C1259.16,1015.083,1279.69,1020.292,1308.018,1022.896C1336.346,1025.5,1372.474,1025.5,1427.082,1025.5C1481.69,1025.5,1554.779,1025.5,1631.063,1025.5C1707.346,1025.5,1786.826,1025.5,1847.824,1025.5C1908.823,1025.5,1951.341,1025.5,1998.434,1025.5C2045.526,1025.5,2097.193,1025.5,2148.859,1025.5C2200.526,1025.5,2252.193,1025.5,2293.796,1025.5C2335.398,1025.5,2366.938,1025.5,2415.044,997.602C2463.15,969.704,2527.823,913.909,2560.16,886.011L2592.497,858.113" id="L_NAV_MON_3" class="edge-thickness-normal edge-pattern-solid edge-thickness-normal edge-pattern-solid flowchart-link" style=";" data-edge="true" data-et="edge" data-id="L_NAV_MON_3" data-points="W3sieCI6MTIzOC42MzExODAwMzczMTM1LCJ5IjoxMDA5Ljg3NX0seyJ4IjoxMzAwLjIxODc1LCJ5IjoxMDI1LjV9LHsieCI6MTQwOC42MDE1NjI1LCJ5IjoxMDI1LjV9LHsieCI6MTYyNy44NjcxODc1LCJ5IjoxMDI1LjV9LHsieCI6MTg2Ni4zMDQ2ODc1LCJ5IjoxMDI1LjV9LHsieCI6MTk5My44NTkzNzUsInkiOjEwMjUuNX0seyJ4IjoyMTQ4Ljg1OTM3NSwieSI6MTAyNS41fSx7IngiOjIzMDMuODU5Mzc1LCJ5IjoxMDI1LjV9LHsieCI6MjM5OC40NzY1NjI1LCJ5IjoxMDI1LjV9LHsieCI6MjU5NS41MjU1MDgyODMxMzI3LCJ5Ijo4NTUuNX1d" marker-end="url(#my-svg_flowchart-v2-pointEnd)"/><path d="M742.159,1106.75L768.684,1093.208C795.21,1079.667,848.261,1052.583,892.193,1035.925C936.125,1019.266,970.938,1013.032,988.344,1009.916L1005.75,1006.799" id="L_BCMD_NAV_0" class="edge-thickness-thick edge-pattern-solid edge-thickness-normal edge-pattern-solid flowchart-link" style=";" data-edge="true" data-et="edge" data-id="L_BCMD_NAV_0" data-points="W3sieCI6NzQyLjE1ODcxNzEwNTI2MzEsInkiOjExMDYuNzV9LHsieCI6OTAxLjMxMjUsInkiOjEwMjUuNX0seyJ4IjoxMDA5LjY4NzUsInkiOjEwMDYuMDkzNjU5MTcyMTUxMX1d" marker-end="url(#my-svg_flowchart-v2-pointEnd)"/><path d="M685.559,1106.75L721.518,1026.75C757.477,946.75,829.395,786.75,904.329,706.75C979.263,626.75,1057.214,626.75,1123.698,626.75C1190.182,626.75,1245.201,626.75,1290.773,626.75C1336.346,626.75,1372.474,626.75,1407.94,624.667C1443.405,622.583,1478.209,618.417,1495.611,616.333L1513.013,614.25" id="L_BCMD_CC_0" class="edge-thickness-normal edge-pattern-dotted edge-thickness-normal edge-pattern-solid flowchart-link" style=";" data-edge="true" data-et="edge" data-id="L_BCMD_CC_0" data-points="W3sieCI6Njg1LjU1ODg3NjgxMTU5NDIsInkiOjExMDYuNzV9LHsieCI6OTAxLjMxMjUsInkiOjYyNi43NX0seyJ4IjoxMTM1LjE2NDA2MjUsInkiOjYyNi43NX0seyJ4IjoxMzAwLjIxODc1LCJ5Ijo2MjYuNzV9LHsieCI6MTQwOC42MDE1NjI1LCJ5Ijo2MjYuNzV9LHsieCI6MTUxNi45ODQzNzUsInkiOjYxMy43NzQ2NDcyNjAwM31d" marker-end="url(#my-svg_flowchart-v2-pointEnd)"/><path d="M2784.891,807.862L2789.057,807.573C2793.224,807.283,2801.557,806.704,2809.891,806.415C2818.224,806.125,2826.557,806.125,2845.799,806.125C2865.042,806.125,2895.193,806.125,2925.344,806.125C2955.495,806.125,2985.646,806.125,3004.57,806.125C3023.495,806.125,3031.193,806.125,3035.042,806.125L3038.891,806.125" id="L_MON_BMON_0" class="edge-thickness-normal edge-pattern-solid edge-thickness-normal edge-pattern-solid flowchart-link" style=";" data-edge="true" data-et="edge" data-id="L_MON_BMON_0" data-points="W3sieCI6Mjc4NC44OTA2MjUsInkiOjgwNy44NjIxNDI4NTcxNDI5fSx7IngiOjI4MDkuODkwNjI1LCJ5Ijo4MDYuMTI1fSx7IngiOjI4MzQuODkwNjI1LCJ5Ijo4MDYuMTI1fSx7IngiOjI5MjUuMzQzNzUsInkiOjgwNi4xMjV9LHsieCI6MzAxNS43OTY4NzUsInkiOjgwNi4xMjV9LHsieCI6MzA0Mi44OTA2MjUsInkiOjgwNi4xMjV9XQ==" marker-end="url(#my-svg_flowchart-v2-pointEnd)"/><path d="M2701.9,855.5L2719.898,866.229C2737.897,876.958,2773.894,898.417,2796.059,909.146C2818.224,919.875,2826.557,919.875,2845.799,919.875C2865.042,919.875,2895.193,919.875,2925.344,919.875C2955.495,919.875,2985.646,919.875,3004.221,919.875C3022.797,919.875,3029.797,919.875,3033.297,919.875L3036.797,919.875" id="L_MON_JMON_0" class="edge-thickness-normal edge-pattern-solid edge-thickness-normal edge-pattern-solid flowchart-link" style=";" data-edge="true" data-et="edge" data-id="L_MON_JMON_0" data-points="W3sieCI6MjcwMS44OTk1ODc4MDY3NDg1LCJ5Ijo4NTUuNX0seyJ4IjoyODA5Ljg5MDYyNSwieSI6OTE5Ljg3NX0seyJ4IjoyODM0Ljg5MDYyNSwieSI6OTE5Ljg3NX0seyJ4IjoyOTI1LjM0Mzc1LCJ5Ijo5MTkuODc1fSx7IngiOjMwMTUuNzk2ODc1LCJ5Ijo5MTkuODc1fSx7IngiOjMwNDAuNzk2ODc1LCJ5Ijo5MTkuODc1fV0=" marker-end="url(#my-svg_flowchart-v2-pointEnd)"/></g><g class="edgeLabels"><g class="edgeLabel" transform="translate(387.7578125, 80.5)"><g class="label" data-id="L_CAM_LANE_0" transform="translate(-67.1328125, -11.25)"><foreignObject width="134.265625" height="22.5"><div xmlns="http://www.w3.org/1999/xhtml" class="labelBkg" style="display: table-cell; white-space: nowrap; line-height: 1.5; max-width: 200px; text-align: center;"><span class="edgeLabel"><p>tpc_rover_d415_rgb</p></span></div></foreignObject></g></g><g class="edgeLabel" transform="translate(901.3125, 80.5)"><g class="label" data-id="L_LANE_STR_0" transform="translate(-65.8828125, -11.25)"><foreignObject width="131.765625" height="22.5"><div xmlns="http://www.w3.org/1999/xhtml" class="labelBkg" style="display: table-cell; white-space: nowrap; line-height: 1.5; max-width: 200px; text-align: center;"><span class="edgeLabel"><p>tpc_rover_nav_lane</p></span></div></foreignObject></g></g><g class="edgeLabel" transform="translate(1363.9872, 348.87065)"><g class="label" data-id="L_STR_CC_0" transform="translate(-63.7734375, -11.25)"><foreignObject width="127.546875" height="22.5"><div xmlns="http://www.w3.org/1999/xhtml" class="labelBkg" style="display: table-cell; white-space: nowrap; line-height: 1.5; max-width: 200px; text-align: center;"><span class="edgeLabel"><p>tpc_rover_ctrl_cmd</p></span></div></foreignObject></g></g><g class="edgeLabel" transform="translate(1866.3046875, 681.75)"><g class="label" data-id="L_STR_MON_0" transform="translate(-63.7734375, -11.25)"><foreignObject width="127.546875" height="22.5"><div xmlns="http://www.w3.org/1999/xhtml" class="labelBkg" style="display: table-cell; white-space: nowrap; line-height: 1.5; max-width: 200px; text-align: center;"><span class="edgeLabel"><p>tpc_rover_ctrl_cmd</p></span></div></foreignObject></g></g><g class="edgeLabel" transform="translate(2398.4765625, 548)"><g class="label" data-id="L_CHD_IMU_N_0" transform="translate(-55.4453125, -11.25)"><foreignObject width="110.890625" height="22.5"><div xmlns="http://www.w3.org/1999/xhtml" class="labelBkg" style="display: table-cell; white-space: nowrap; line-height: 1.5; max-width: 200px; text-align: center;"><span class="edgeLabel"><p>tpc_chassis_imu</p></span></div></foreignObject></g></g><g class="edgeLabel" transform="translate(2360.90919, 568.07823)"><g class="label" data-id="L_CHD_MON_0" transform="translate(-55.4453125, -11.25)"><foreignObject width="110.890625" height="22.5"><div xmlns="http://www.w3.org/1999/xhtml" class="labelBkg" style="display: table-cell; white-space: nowrap; line-height: 1.5; max-width: 200px; text-align: center;"><span class="edgeLabel"><p>tpc_chassis_imu</p></span></div></foreignObject></g></g><g class="edgeLabel" transform="translate(2398.4765625, 650.5)"><g class="label" data-id="L_SND_SENS_N_0" transform="translate(-69.6171875, -11.25)"><foreignObject width="139.234375" height="22.5"><div xmlns="http://www.w3.org/1999/xhtml" class="labelBkg" style="display: table-cell; white-space: nowrap; line-height: 1.5; max-width: 200px; text-align: center;"><span class="edgeLabel"><p>tpc_chassis_sensors</p></span></div></foreignObject></g></g><g class="edgeLabel" transform="translate(2398.4765625, 755.5)"><g class="label" data-id="L_SND_MON_0" transform="translate(-69.6171875, -11.25)"><foreignObject width="139.234375" height="22.5"><div xmlns="http://www.w3.org/1999/xhtml" class="labelBkg" style="display: table-cell; white-space: nowrap; line-height: 1.5; max-width: 200px; text-align: center;"><span class="edgeLabel"><p>tpc_chassis_sensors</p></span></div></foreignObject></g></g><g class="edgeLabel" transform="translate(1866.3046875, 600.5)"><g class="label" data-id="L_CC_CHD_0" transform="translate(-57.53125, -11.25)"><foreignObject width="115.0625" height="22.5"><div xmlns="http://www.w3.org/1999/xhtml" class="labelBkg" style="display: table-cell; white-space: nowrap; line-height: 1.5; max-width: 200px; text-align: center;"><span class="edgeLabel"><p>tpc_chassis_cmd</p></span></div></foreignObject></g></g><g class="edgeLabel" transform="translate(2148.859375, 786.75)"><g class="label" data-id="L_CC_MON_0" transform="translate(-57.53125, -11.25)"><foreignObject width="115.0625" height="22.5"><div xmlns="http://www.w3.org/1999/xhtml" class="labelBkg" style="display: table-cell; white-space: nowrap; line-height: 1.5; max-width: 200px; text-align: center;"><span class="edgeLabel"><p>tpc_chassis_cmd</p></span></div></foreignObject></g></g><g class="edgeLabel" transform="translate(919.40102, 901.73985)"><g class="label" data-id="L_SPRES_NAV_0" transform="translate(-68.796875, -11.25)"><foreignObject width="137.59375" height="22.5"><div xmlns="http://www.w3.org/1999/xhtml" class="labelBkg" style="display: table-cell; white-space: nowrap; line-height: 1.5; max-width: 200px; text-align: center;"><span class="edgeLabel"><p>tpc_gnss_spresense</p></span></div></foreignObject></g></g><g class="edgeLabel" transform="translate(1627.8671875, 818)"><g class="label" data-id="L_SPRES_MON_0" transform="translate(-68.796875, -11.25)"><foreignObject width="137.59375" height="22.5"><div xmlns="http://www.w3.org/1999/xhtml" class="labelBkg" style="display: table-cell; white-space: nowrap; line-height: 1.5; max-width: 200px; text-align: center;"><span class="edgeLabel"><p>tpc_gnss_spresense</p></span></div></foreignObject></g></g><g class="edgeLabel" transform="translate(2398.4765625, 879.25)"><g class="label" data-id="L_RTK_MON_0" transform="translate(-52.125, -11.25)"><foreignObject width="104.25" height="22.5"><div xmlns="http://www.w3.org/1999/xhtml" class="labelBkg" style="display: table-cell; white-space: nowrap; line-height: 1.5; max-width: 200px; text-align: center;"><span class="edgeLabel"><p>tpc_gnss_ublox</p></span></div></foreignObject></g></g><g class="edgeLabel" transform="translate(1408.6015625, 590.5)"><g class="label" data-id="L_NAV_CC_0" transform="translate(-83.3828125, -11.25)"><foreignObject width="166.765625" height="22.5"><div xmlns="http://www.w3.org/1999/xhtml" class="labelBkg" style="display: table-cell; white-space: nowrap; line-height: 1.5; max-width: 200px; text-align: center;"><span class="edgeLabel"><p>tpc_gnss_mission_active</p></span></div></foreignObject></g></g><g class="edgeLabel" transform="translate(1866.3046875, 940.5)"><g class="label" data-id="L_NAV_MON_0" transform="translate(-83.3828125, -11.25)"><foreignObject width="166.765625" height="22.5"><div xmlns="http://www.w3.org/1999/xhtml" class="labelBkg" style="display: table-cell; white-space: nowrap; line-height: 1.5; max-width: 200px; text-align: center;"><span class="edgeLabel"><p>tpc_gnss_mission_active</p></span></div></foreignObject></g></g><g class="edgeLabel" transform="translate(1866.3046875, 983)"><g class="label" data-id="L_NAV_MON_2" transform="translate(-102.5546875, -11.25)"><foreignObject width="205.109375" height="22.5"><div xmlns="http://www.w3.org/1999/xhtml" class="labelBkg" style="display: table; white-space: break-spaces; line-height: 1.5; max-width: 200px; text-align: center; width: 200px;"><span class="edgeLabel"><p>tpc_gnss_mission_remain_dist</p></span></div></foreignObject></g></g><g class="edgeLabel" transform="translate(1866.3046875, 1025.5)"><g class="label" data-id="L_NAV_MON_3" transform="translate(-88.8125, -11.25)"><foreignObject width="177.625" height="22.5"><div xmlns="http://www.w3.org/1999/xhtml" class="labelBkg" style="display: table-cell; white-space: nowrap; line-height: 1.5; max-width: 200px; text-align: center;"><span class="edgeLabel"><p>tpc_rover_dest_coordinate</p></span></div></foreignObject></g></g><g class="edgeLabel" transform="translate(870.76539, 1041.09468)"><g class="label" data-id="L_BCMD_NAV_0" transform="translate(-51.28125, -11.25)"><foreignObject width="102.5625" height="22.5"><div xmlns="http://www.w3.org/1999/xhtml" class="labelBkg" style="display: table-cell; white-space: nowrap; line-height: 1.5; max-width: 200px; text-align: center;"><span class="edgeLabel"><p>DesData action</p></span></div></foreignObject></g></g><g class="edgeLabel" transform="translate(1135.1640625, 626.75)"><g class="label" data-id="L_BCMD_CC_0" transform="translate(-74.6015625, -11.25)"><foreignObject width="149.203125" height="22.5"><div xmlns="http://www.w3.org/1999/xhtml" class="labelBkg" style="display: table-cell; white-space: nowrap; line-height: 1.5; max-width: 200px; text-align: center;"><span class="edgeLabel"><p>srv_spd_limit (service)</p></span></div></foreignObject></g></g><g class="edgeLabel" transform="translate(2925.34375, 806.125)"><g class="label" data-id="L_MON_BMON_0" transform="translate(-65.453125, -11.25)"><foreignObject width="130.90625" height="22.5"><div xmlns="http://www.w3.org/1999/xhtml" class="labelBkg" style="display: table-cell; white-space: nowrap; line-height: 1.5; max-width: 200px; text-align: center;"><span class="edgeLabel"><p>tpc_telemetry_relay</p></span></div></foreignObject></g></g><g class="edgeLabel" transform="translate(2925.34375, 919.875)"><g class="label" data-id="L_MON_JMON_0" transform="translate(-65.453125, -11.25)"><foreignObject width="130.90625" height="22.5"><div xmlns="http://www.w3.org/1999/xhtml" class="labelBkg" style="display: table-cell; white-space: nowrap; line-height: 1.5; max-width: 200px; text-align: center;"><span class="edgeLabel"><p>tpc_telemetry_relay</p></span></div></foreignObject></g></g></g><g class="nodes"><g class="node default" id="flowchart-CAM-0" transform="translate(164.3125, 80.5)"><rect class="basic label-container" style="" x="-131.3125" y="-26.25" width="262.625" height="52.5"/><g class="label" style="" transform="translate(-101.3125, -11.25)"><rect/><foreignObject width="202.625" height="22.5"><div xmlns="http://www.w3.org/1999/xhtml" style="display: table; white-space: break-spaces; line-height: 1.5; max-width: 200px; text-align: center; width: 200px;"><span class="nodeLabel"><p>camera_stream_node\nJetson</p></span></div></foreignObject></g></g><g class="node default" id="flowchart-LANE-1" transform="translate(668.703125, 80.5)"><rect class="basic label-container" style="" x="-128" y="-26.25" width="256" height="52.5"/><g class="label" style="" transform="translate(-98, -11.25)"><rect/><foreignObject width="196" height="22.5"><div xmlns="http://www.w3.org/1999/xhtml" style="display: table-cell; white-space: nowrap; line-height: 1.5; max-width: 200px; text-align: center;"><span class="nodeLabel"><p>lane_detection_node\nJetson</p></span></div></foreignObject></g></g><g class="node default" id="flowchart-STR-2" transform="translate(1135.1640625, 80.5)"><rect class="basic label-container" style="fill:#fef9c3 !important;stroke:#ca8a04 !important;stroke-dasharray:4 !important" x="-140.0546875" y="-37.5" width="280.109375" height="75"/><g class="label" style="" transform="translate(-110.0546875, -22.5)"><rect/><foreignObject width="220.109375" height="45"><div xmlns="http://www.w3.org/1999/xhtml" style="display: table; white-space: break-spaces; line-height: 1.5; max-width: 200px; text-align: center; width: 200px;"><span class="nodeLabel"><p>rover_kinematic_control\nJetson (D6 sub | D5 pub)</p></span></div></foreignObject></g></g><g class="node default" id="flowchart-CC-7" transform="translate(1627.8671875, 600.5)"><rect class="basic label-container" style="" x="-110.8828125" y="-26.25" width="221.765625" height="52.5"/><g class="label" style="" transform="translate(-80.8828125, -11.25)"><rect/><foreignObject width="161.765625" height="22.5"><div xmlns="http://www.w3.org/1999/xhtml" style="display: table-cell; white-space: nowrap; line-height: 1.5; max-width: 200px; text-align: center;"><span class="nodeLabel"><p>chassis_controller_node</p></span></div></foreignObject></g></g><g class="node default" id="flowchart-IMU_N-8" transform="translate(2638.9921875, 548)"><rect class="basic label-container" style="" x="-92.125" y="-26.25" width="184.25" height="52.5"/><g class="label" style="" transform="translate(-62.125, -11.25)"><rect/><foreignObject width="124.25" height="22.5"><div xmlns="http://www.w3.org/1999/xhtml" style="display: table-cell; white-space: nowrap; line-height: 1.5; max-width: 200px; text-align: center;"><span class="nodeLabel"><p>chassis_imu_node</p></span></div></foreignObject></g></g><g class="node default" id="flowchart-SENS_N-9" transform="translate(2638.9921875, 650.5)"><rect class="basic label-container" style="" x="-106.296875" y="-26.25" width="212.59375" height="52.5"/><g class="label" style="" transform="translate(-76.296875, -11.25)"><rect/><foreignObject width="152.59375" height="22.5"><div xmlns="http://www.w3.org/1999/xhtml" style="display: table-cell; white-space: nowrap; line-height: 1.5; max-width: 200px; text-align: center;"><span class="nodeLabel"><p>chassis_sensors_node</p></span></div></foreignObject></g></g><g class="node default" id="flowchart-SPRES-10" transform="translate(668.703125, 833.625)"><rect class="basic label-container" style="" x="-105.4765625" y="-26.25" width="210.953125" height="52.5"/><g class="label" style="" transform="translate(-75.4765625, -11.25)"><rect/><foreignObject width="150.953125" height="22.5"><div xmlns="http://www.w3.org/1999/xhtml" style="display: table-cell; white-space: nowrap; line-height: 1.5; max-width: 200px; text-align: center;"><span class="nodeLabel"><p>gnss_spresense_node</p></span></div></foreignObject></g></g><g class="node default" id="flowchart-RTK-11" transform="translate(2148.859375, 879.25)"><rect class="basic label-container" style="" x="-88.8046875" y="-26.25" width="177.609375" height="52.5"/><g class="label" style="" transform="translate(-58.8046875, -11.25)"><rect/><foreignObject width="117.609375" height="22.5"><div xmlns="http://www.w3.org/1999/xhtml" style="display: table-cell; white-space: nowrap; line-height: 1.5; max-width: 200px; text-align: center;"><span class="nodeLabel"><p>gnss_ublox_node</p></span></div></foreignObject></g></g><g class="node default" id="flowchart-NAV-12" transform="translate(1135.1640625, 983.625)"><rect class="basic label-container" style="" x="-125.4765625" y="-26.25" width="250.953125" height="52.5"/><g class="label" style="" transform="translate(-95.4765625, -11.25)"><rect/><foreignObject width="190.953125" height="22.5"><div xmlns="http://www.w3.org/1999/xhtml" style="display: table-cell; white-space: nowrap; line-height: 1.5; max-width: 200px; text-align: center;"><span class="nodeLabel"><p>gnss_mission_monitor_node</p></span></div></foreignObject></g></g><g class="node default" id="flowchart-MON-13" transform="translate(2638.9921875, 818)"><rect class="basic label-container" style="" x="-145.8984375" y="-37.5" width="291.796875" height="75"/><g class="label" style="" transform="translate(-115.8984375, -22.5)"><rect/><foreignObject width="231.796875" height="45"><div xmlns="http://www.w3.org/1999/xhtml" style="display: table; white-space: break-spaces; line-height: 1.5; max-width: 200px; text-align: center; width: 200px;"><span class="nodeLabel"><p>mission_monitoring_node_rpi\nD5 sub / D4 pub</p></span></div></foreignObject></g></g><g class="node default" id="flowchart-CHD-14" transform="translate(2148.859375, 269.25)"><rect class="basic label-container" style="" x="-130" y="-37.5" width="260" height="75"/><g class="label" style="" transform="translate(-100, -22.5)"><rect/><foreignObject width="200" height="45"><div xmlns="http://www.w3.org/1999/xhtml" style="display: table; white-space: break-spaces; line-height: 1.5; max-width: 200px; text-align: center; width: 200px;"><span class="nodeLabel"><p>chassis_controller\nSTM32 Chassis</p></span></div></foreignObject></g></g><g class="node default" id="flowchart-SND-15" transform="translate(2148.859375, 394.25)"><rect class="basic label-container" style="" x="-130" y="-37.5" width="260" height="75"/><g class="label" style="" transform="translate(-100, -22.5)"><rect/><foreignObject width="200" height="45"><div xmlns="http://www.w3.org/1999/xhtml" style="display: table; white-space: break-spaces; line-height: 1.5; max-width: 200px; text-align: center; width: 200px;"><span class="nodeLabel"><p>sensors_node\nSTM32 Sensors</p></span></div></foreignObject></g></g><g class="node default" id="flowchart-BCMD-16" transform="translate(668.703125, 1144.25)"><rect class="basic label-container" style="" x="-138.8125" y="-37.5" width="277.625" height="75"/><g class="label" style="" transform="translate(-108.8125, -22.5)"><rect/><foreignObject width="217.625" height="45"><div xmlns="http://www.w3.org/1999/xhtml" style="display: table; white-space: break-spaces; line-height: 1.5; max-width: 200px; text-align: center; width: 200px;"><span class="nodeLabel"><p>mission_command_node\nBase PC</p></span></div></foreignObject></g></g><g class="node default" id="flowchart-BMON-17" transform="translate(3195.8828125, 806.125)"><rect class="basic label-container" style="" x="-152.9921875" y="-37.5" width="305.984375" height="75"/><g class="label" style="" transform="translate(-122.9921875, -22.5)"><rect/><foreignObject width="245.984375" height="45"><div xmlns="http://www.w3.org/1999/xhtml" style="display: table; white-space: break-spaces; line-height: 1.5; max-width: 200px; text-align: center; width: 200px;"><span class="nodeLabel"><p>mission_monitoring_node_pc\nBase PC</p></span></div></foreignObject></g></g><g class="node default" id="flowchart-JMON-18" transform="translate(3195.8828125, 919.875)"><rect class="basic label-container" style="" x="-155.0859375" y="-26.25" width="310.171875" height="52.5"/><g class="label" style="" transform="translate(-125.0859375, -11.25)"><rect/><foreignObject width="250.171875" height="22.5"><div xmlns="http://www.w3.org/1999/xhtml" style="display: table; white-space: break-spaces; line-height: 1.5; max-width: 200px; text-align: center; width: 200px;"><span class="nodeLabel"><p>rover_local_monitoring_node\nJetson</p></span></div></foreignObject></g></g></g></g></g></svg>